<svg width="21" height="20" viewBox="0 0 21 20" fill="none" xmlns="http://www.w3.org/2000/svg">
<g clip-path="url(#clip0_2504_42938)">
<path d="M20.1793 10C20.1793 4.47715 15.69 0 10.1521 0C4.6143 0 0.125 4.47715 0.125 10C0.125 15.5228 4.6143 20 10.1521 20C15.69 20 20.1793 15.5228 20.1793 10Z" fill="#0052FF"/>
<path d="M10.1558 13.5156C8.20816 13.5156 6.63063 11.9424 6.63063 10C6.63063 8.05762 8.20816 6.48438 10.1558 6.48438C11.9008 6.48438 13.349 7.75293 13.6281 9.41406H17.1797C16.8801 5.80469 13.8513 2.96875 10.1558 2.96875C6.26343 2.96875 3.10547 6.11816 3.10547 10C3.10547 13.8818 6.26343 17.0312 10.1558 17.0312C13.8513 17.0312 16.8801 14.1953 17.1797 10.5859H13.6252C13.3461 12.2471 11.9008 13.5156 10.1558 13.5156Z" fill="white"/>
</g>
<defs>
<clipPath id="clip0_2504_42938">
<rect width="20.0543" height="20" fill="white" transform="translate(0.125)"/>
</clipPath>
</defs>
</svg>
