<?xml version="1.0" encoding="UTF-8"?><svg id="Layer_2" xmlns="http://www.w3.org/2000/svg" viewBox="0 0 723.96 183.31"><g id="Layer_1-2"><g><g><path d="M123.83,1.21c-1.04,5.53-1.38,12.97-1.38,23.69V117.95c0,10.55,.35,16.08,1.38,23.87h-31.3c1.04-7.09,1.38-12.8,1.38-23.87v-36.49H29.75v36.49c0,10.55,.35,16.26,1.38,23.87H0c1.04-6.92,1.38-12.62,1.38-23.87V25.08C1.38,14.01,1.04,8.3,0,1.21H31.13c-1.04,7.44-1.38,13.84-1.38,23.69v31.13H93.91V25.08c0-10.9-.35-17.47-1.38-23.87h31.3Z"/><path d="M178.82,1.21c-1.04,6.92-1.38,12.28-1.38,23.87V117.95c0,11.07,.35,17.12,1.38,23.87h-31.82c1.04-6.74,1.38-13.14,1.38-23.87V25.08c0-11.93-.35-16.43-1.38-23.87h31.82Z"/><path d="M231.91,115.87c0,12.8,.35,19.2,1.38,25.94h-31.48c1.04-6.4,1.56-13.84,1.56-25.6V24.39c0-10.38-.35-15.74-1.38-23.69,6.92,.35,11.59,.52,23.52,.52h50.33c11.59,0,17.47-.35,24.9-1.21V27.84c-6.57-.86-13.49-1.21-24.73-1.21h-44.1V59.49h35.45c11.41,0,17.64-.35,24.73-1.21v27.15c-6.57-.86-13.84-1.21-24.73-1.21h-35.45v31.65Z"/><path d="M348.65,1.21c-1.04,6.92-1.38,12.28-1.38,23.87V117.95c0,11.07,.35,17.12,1.38,23.87h-31.82c1.04-6.74,1.38-13.14,1.38-23.87V25.08c0-11.93-.35-16.43-1.38-23.87h31.82Z"/></g><g><path d="M414.29,141.79c1.12-6.54,1.5-11.59,1.5-20.2V21.37c0-7.29-.37-12.9-1.5-20.57,6.73,.37,11.41,.56,19.63,.56h37.96c27.68,0,43.38,14.4,43.38,39.83s-16.27,42.07-44.13,42.07h-43.38v38.33c0,8.79,.37,14.02,1.5,20.2h-14.96Zm56.66-69.19c20.57,0,32.16-11.03,32.16-30.85s-11.22-29.73-32.16-29.73h-43.2v60.59h43.2Z"/><path d="M600.92,127.58c-7.67,7.11-11.41,9.72-18.14,12.34-6.17,2.43-12.72,3.74-18.89,3.74-19.63,0-31.79-10.47-31.79-27.68,0-15.33,9.72-25.99,28.05-30.67,10.66-2.62,19.45-3.55,40.77-4.11v-12.15c0-12.53-8.6-19.63-24.12-19.63-10.85,0-18.7,2.8-23.94,8.6-2.62,2.8-3.93,5.42-5.8,11.03l-11.78-2.62c2.99-8.41,5.24-11.97,9.16-15.89,7.29-7.11,18.14-10.85,31.6-10.85,23.19,0,35.72,10.28,35.72,29.17v53.11c0,7.85,.37,12.53,1.5,19.82h-12.34v-14.21Zm0-36.84c-23.75,.56-34.78,2.06-43.2,5.8-9.16,4.11-13.84,10.66-13.84,19.63,0,10.85,8.23,17.76,20.94,17.76,10.66,0,23.37-5.8,30.67-14.21,4.3-4.67,5.42-8.23,5.42-16.08v-12.9Z"/><path d="M638.5,64.38q-7.85-17.58-10.1-21.69h15.52c.94,5.05,3.18,12.34,6.17,19.26l28.24,65.45,25.24-65.26c3.37-9.16,5.05-14.4,5.98-19.45h14.4c-1.5,3.74-4.49,11.03-8.98,21.69l-41.51,102.66c-4.67,11.22-12.15,16.27-24.12,16.27-3.93,0-8.04-.56-14.59-1.87l3.93-11.78c5.24,2.43,7.48,3.18,11.03,3.18,6.36,0,10.47-3.18,13.65-10.47l9.16-22.07-34.03-75.92Z"/></g></g></g></svg>