<svg width="274" height="641" viewBox="0 0 274 641" fill="none" xmlns="http://www.w3.org/2000/svg">
<mask id="path-1-inside-1_2504_42923" fill="white">
<path d="M0 0H274V641H0V0Z"/>
</mask>
<path d="M0 0H274V641H0V0Z" fill="white"/>
<path d="M273 0V641H275V0H273Z" fill="#E5E9EB" mask="url(#path-1-inside-1_2504_42923)"/>
<path d="M53.5519 32.209C53.3709 33.1744 53.3117 34.4732 53.3117 36.3447V52.589C53.3117 54.4308 53.3726 55.3962 53.5519 56.7562H48.1043C48.2853 55.5184 48.3445 54.5216 48.3445 52.589V46.2187H37.1778V52.589C37.1778 54.4308 37.2387 55.4276 37.418 56.7562H32C32.181 55.5481 32.2402 54.553 32.2402 52.589V36.3761C32.2402 34.4436 32.181 33.4467 32 32.209H37.418C37.237 33.5078 37.1778 34.6251 37.1778 36.3447V41.7793H48.3445V36.3761C48.3445 34.4732 48.2836 33.3263 48.1043 32.209H53.5519Z" fill="#111012"/>
<path d="M63.1221 32.209C62.9411 33.4171 62.8819 34.3528 62.8819 36.3761V52.589C62.8819 54.5216 62.9428 55.5778 63.1221 56.7562H57.584C57.765 55.5795 57.8242 54.4622 57.8242 52.589V36.3761C57.8242 34.2934 57.7632 33.5078 57.584 32.209H63.1221Z" fill="#111012"/>
<path d="M72.3618 52.2264C72.3618 54.461 72.4227 55.5783 72.602 56.7549H67.123C67.3041 55.6376 67.3946 54.3388 67.3946 52.2858V36.2562C67.3946 34.4441 67.3336 33.5083 67.1544 32.1205C68.3588 32.1816 69.1715 32.2112 71.2479 32.2112H80.0075C82.0247 32.2112 83.0481 32.1501 84.3412 32V36.8585C83.1978 36.7083 81.9934 36.6472 80.0371 36.6472H72.3618V42.3838H78.5316C80.5175 42.3838 81.6018 42.3227 82.8357 42.1726V46.9123C81.6923 46.7622 80.427 46.7011 78.5316 46.7011H72.3618V52.2264Z" fill="#111012"/>
<path d="M92.6787 32.209C92.4977 33.4171 92.4385 34.3528 92.4385 36.3761V52.589C92.4385 54.5216 92.4994 55.5778 92.6787 56.7562H87.1406C87.3216 55.5795 87.3808 54.4622 87.3808 52.589V36.3761C87.3808 34.2934 87.3199 33.5078 87.1406 32.209H92.6787Z" fill="#111012"/>
<path d="M104.104 56.7512C104.298 55.6095 104.365 54.7279 104.365 53.2248V35.7287C104.365 34.4561 104.3 33.4767 104.104 32.1377C105.275 32.2023 106.089 32.2355 107.52 32.2355H114.127C118.944 32.2355 121.677 34.7494 121.677 39.1888C121.677 43.6283 118.845 46.5333 113.996 46.5333H106.446V53.2248C106.446 54.7593 106.511 55.6723 106.707 56.7512H104.104ZM113.965 44.6723C117.545 44.6723 119.562 42.7467 119.562 39.2866C119.562 35.8265 117.609 34.0964 113.965 34.0964H106.446V44.674H113.965V44.6723Z" fill="#111012"/>
<path d="M136.585 54.2703C135.25 55.5115 134.599 55.9672 133.428 56.4245C132.354 56.8488 131.214 57.0775 130.14 57.0775C126.724 57.0775 124.607 55.2497 124.607 52.2452C124.607 49.5689 126.299 47.7079 129.489 46.8909C131.345 46.4335 132.875 46.2712 136.585 46.1734V44.0523C136.585 41.8649 135.088 40.6254 132.387 40.6254C130.499 40.6254 129.133 41.1142 128.221 42.1267C127.765 42.6156 127.537 43.0729 127.211 44.0523L125.161 43.5949C125.681 42.1267 126.073 41.5053 126.755 40.8209C128.024 39.5797 129.912 38.9268 132.255 38.9268C136.291 38.9268 138.472 40.7214 138.472 44.0192V53.2909C138.472 54.6613 138.536 55.4783 138.733 56.751H136.585V54.2703ZM136.585 47.8389C132.452 47.9366 130.532 48.1985 129.066 48.8514C127.472 49.5689 126.658 50.7124 126.658 52.2784C126.658 54.1725 128.09 55.3788 130.302 55.3788C132.157 55.3788 134.37 54.3663 135.64 52.8981C136.388 52.0828 136.583 51.4613 136.583 50.0909V47.8389H136.585Z" fill="#111012"/>
<path d="M143.127 43.2377C142.216 41.1917 141.63 39.9295 141.369 39.4512H144.07C144.234 40.3328 144.624 41.6054 145.144 42.8135L150.059 54.2395L154.452 42.8467C155.039 41.2476 155.331 40.3328 155.493 39.4512H157.999C157.738 40.1041 157.218 41.3767 156.436 43.2377L149.212 61.1597C148.399 63.1185 147.097 64.0001 145.014 64.0001C144.33 64.0001 143.614 63.9023 142.474 63.6736L143.158 61.6171C144.07 62.0414 144.46 62.1723 145.078 62.1723C146.185 62.1723 146.9 61.6171 147.454 60.3445L149.048 56.4916L143.125 43.2377H143.127Z" fill="#111012"/>
</svg>
