<svg width="24" height="24" viewBox="0 0 24 24" fill="none" xmlns="http://www.w3.org/2000/svg">
<path d="M18.2887 16.962C18.4649 17.1381 18.5638 17.377 18.5638 17.626C18.5638 17.8751 18.4649 18.114 18.2887 18.2901C18.1126 18.4662 17.8737 18.5652 17.6247 18.5652C17.3756 18.5652 17.1367 18.4662 16.9606 18.2901L12.0005 13.3284L7.03874 18.2885C6.86261 18.4647 6.62374 18.5636 6.37467 18.5636C6.1256 18.5636 5.88673 18.4647 5.71061 18.2885C5.53449 18.1124 5.43555 17.8736 5.43555 17.6245C5.43555 17.3754 5.53449 17.1365 5.71061 16.9604L10.6723 12.0003L5.71217 7.03854C5.53605 6.86242 5.43711 6.62355 5.43711 6.37448C5.43711 6.12541 5.53605 5.88654 5.71217 5.71042C5.88829 5.53429 6.12716 5.43535 6.37624 5.43535C6.62531 5.43535 6.86418 5.53429 7.0403 5.71042L12.0005 10.6721L16.9622 5.70963C17.1383 5.53351 17.3772 5.43457 17.6262 5.43457C17.8753 5.43457 18.1142 5.53351 18.2903 5.70963C18.4664 5.88575 18.5654 6.12462 18.5654 6.3737C18.5654 6.62277 18.4664 6.86164 18.2903 7.03776L13.3286 12.0003L18.2887 16.962Z" fill="white"/>
</svg>
